<?xml version="1.0" standalone="no"?>
<!DOCTYPE svg PUBLIC "-//W3C//DTD SVG 20010904//EN"
 "http://www.w3.org/TR/2001/REC-SVG-20010904/DTD/svg10.dtd">
<svg version="1.0" xmlns="http://www.w3.org/2000/svg"
 width="604.000000pt" height="604.000000pt" viewBox="0 0 604.000000 604.000000"
 preserveAspectRatio="xMidYMid meet">
<metadata>
Created by potrace 1.14, written by Peter Selinger 2001-2017
</metadata>
<g transform="translate(0.000000,604.000000) scale(0.100000,-0.100000)"
fill="#000000" stroke="none">
<path d="M2900 6033 c-58 -10 -142 -35 -187 -55 -26 -12 -51 -22 -54 -22 -3
-1 -102 -57 -220 -125 -118 -69 -232 -135 -254 -146 -22 -12 -86 -50 -143 -84
-56 -33 -105 -61 -107 -61 -3 0 -24 -12 -47 -26 -68 -43 -142 -85 -160 -91
-10 -3 -18 -9 -18 -14 0 -5 -4 -9 -10 -9 -8 0 -126 -65 -180 -100 -24 -15
-184 -105 -195 -109 -5 -2 -12 -7 -15 -10 -3 -4 -68 -43 -145 -86 -77 -44
-141 -83 -143 -87 -2 -5 -8 -8 -13 -8 -6 0 -54 -25 -107 -56 -53 -31 -117 -68
-142 -82 -25 -14 -57 -34 -72 -44 -16 -11 -28 -16 -28 -11 0 4 -4 3 -8 -3 -4
-6 -29 -24 -57 -39 -27 -15 -79 -44 -115 -65 -36 -21 -80 -46 -98 -55 l-32
-17 3 -1372 c1 -754 6 -1384 10 -1401 34 -136 76 -228 147 -325 91 -123 154
-172 423 -326 76 -43 155 -89 175 -101 20 -11 48 -28 62 -36 14 -8 45 -26 70
-39 25 -14 80 -46 123 -72 43 -25 80 -46 82 -46 2 0 40 -22 85 -50 45 -27 83
-50 85 -50 2 0 81 -45 176 -100 94 -55 174 -100 176 -100 4 0 79 -45 129 -78
10 -6 26 -15 34 -19 19 -8 246 -139 280 -161 14 -9 27 -17 30 -17 3 0 16 -8
30 -17 23 -14 98 -58 390 -226 52 -30 110 -63 128 -73 l34 -20 49 31 c27 16
54 30 59 30 6 0 10 3 10 8 0 4 10 12 23 18 47 22 143 77 160 92 9 8 17 12 17
8 0 -4 12 1 28 12 33 24 409 241 532 308 19 10 37 21 40 24 3 3 16 11 29 18
50 28 92 53 129 74 20 12 57 33 82 47 25 13 47 27 50 31 3 3 16 11 30 17 30
15 112 61 166 95 21 13 46 28 54 31 8 4 30 16 49 28 37 22 268 156 341 197 25
14 78 45 118 69 41 24 78 43 83 43 5 0 9 4 9 9 0 5 8 11 18 14 9 3 40 19 67
36 28 16 68 39 90 51 101 55 183 125 274 235 31 38 84 136 110 205 52 139 50
96 51 1545 l0 1351 -225 129 c-124 72 -238 138 -253 147 -15 9 -45 26 -67 37
-22 12 -110 62 -195 112 -85 50 -173 101 -195 114 -102 58 -445 256 -582 336
-84 49 -155 89 -158 89 -3 0 -18 8 -33 19 -36 25 -534 312 -598 344 -47 24
-147 60 -204 73 -31 7 -247 13 -280 7z m210 -363 c64 -12 109 -33 253 -117 60
-35 110 -63 112 -63 2 0 24 -13 48 -30 25 -16 48 -30 52 -30 4 0 36 -18 71
-40 35 -22 66 -40 68 -40 2 0 50 -27 106 -60 56 -33 106 -60 111 -60 5 0 9 -4
9 -10 0 -5 4 -10 9 -10 9 0 106 -53 161 -88 14 -9 27 -17 30 -17 3 0 50 -27
105 -59 219 -129 266 -156 271 -156 3 0 17 -8 32 -19 50 -34 552 -321 562
-321 5 0 10 -4 10 -10 0 -5 4 -10 9 -10 6 0 53 -25 105 -56 l96 -56 0 -859 0
-859 -47 -30 c-27 -16 -54 -30 -60 -30 -7 0 -13 -4 -13 -9 0 -5 -8 -12 -19
-16 -10 -3 -107 -57 -215 -120 -108 -63 -199 -115 -202 -115 -2 0 -10 -5 -17
-10 -7 -6 -64 -40 -127 -76 -63 -36 -133 -76 -155 -89 -22 -12 -80 -46 -130
-75 -49 -29 -110 -64 -135 -78 -25 -14 -76 -44 -115 -67 -38 -23 -77 -45 -85
-48 -8 -4 -30 -16 -49 -28 -19 -11 -93 -54 -165 -96 -174 -101 -182 -105 -251
-144 -33 -18 -61 -37 -63 -41 -2 -4 -8 -8 -12 -8 -5 0 -62 -31 -127 -69 -259
-150 -314 -181 -324 -181 -6 0 -41 17 -77 39 -37 21 -83 48 -102 59 -19 11
-107 61 -195 112 -88 51 -176 101 -195 112 -19 10 -42 23 -50 28 -27 17 -293
170 -296 170 -2 0 -26 14 -55 30 -28 17 -54 29 -56 26 -5 -4 -5 -97 -3 -381
l0 -61 141 -82 c77 -45 145 -82 150 -82 5 0 9 -4 9 -10 0 -5 5 -10 11 -10 6 0
44 -20 85 -45 40 -25 78 -45 84 -45 5 0 10 -4 10 -10 0 -5 5 -10 10 -10 6 0
75 -37 153 -83 79 -46 150 -86 157 -90 8 -4 29 -15 45 -26 29 -17 61 -36 141
-81 l35 -20 127 74 c70 40 143 83 162 95 19 11 52 30 72 41 20 11 130 74 245
141 114 67 233 135 263 151 30 17 63 37 73 46 9 8 17 12 17 8 0 -4 12 1 28 12
33 24 409 241 532 308 19 10 37 22 40 25 3 3 30 19 60 36 65 36 89 49 239 137
62 36 116 66 119 66 3 0 13 6 21 14 9 8 39 26 66 40 28 15 57 31 65 36 45 29
171 100 176 100 7 0 -1 -317 -9 -345 -8 -29 -45 -113 -56 -128 -49 -61 -94
-105 -141 -136 -90 -58 -94 -61 -122 -72 -16 -6 -28 -15 -28 -20 0 -5 -4 -9
-9 -9 -8 0 -168 -89 -236 -131 -16 -10 -37 -22 -45 -26 -7 -4 -78 -44 -157
-90 -78 -46 -147 -83 -153 -83 -5 0 -10 -4 -10 -10 0 -5 -4 -10 -10 -10 -5 0
-42 -20 -82 -44 -40 -24 -96 -56 -125 -72 -48 -27 -308 -177 -345 -199 -9 -5
-29 -17 -45 -26 -15 -9 -87 -50 -160 -92 -72 -42 -147 -85 -165 -95 -100 -58
-375 -216 -389 -225 -16 -10 -104 39 -806 444 -44 25 -80 46 -193 110 -52 29
-97 56 -100 60 -3 3 -9 8 -15 10 -11 4 -170 93 -195 109 -8 5 -56 33 -105 62
l-91 53 1 1332 c0 732 2 1333 5 1336 9 7 364 214 435 252 22 12 70 41 108 63
37 23 72 42 77 42 6 0 10 4 10 8 0 4 12 13 28 19 15 7 45 23 67 36 117 71 197
117 202 117 3 0 19 10 36 22 18 13 35 23 40 23 32 0 -16 35 -174 127 -181 105
-211 118 -224 97 -4 -5 -17 -15 -28 -20 -12 -5 -40 -20 -62 -32 -253 -145
-421 -243 -425 -247 -3 -3 -30 -18 -60 -34 -30 -16 -66 -38 -79 -48 -13 -10
-27 -18 -31 -18 -7 0 -94 -50 -266 -152 l-51 -31 1 -1328 c0 -731 -2 -1329 -6
-1329 -12 0 -93 44 -96 52 -2 4 -9 8 -16 8 -23 0 -165 101 -201 143 -33 38
-74 104 -72 117 0 3 -5 14 -11 26 -6 11 -15 34 -19 50 -4 16 -9 588 -10 1271
l-3 1241 27 15 c56 29 128 71 133 77 3 4 20 13 38 21 17 8 32 17 32 21 0 3 6
8 13 10 10 2 157 85 340 192 18 10 115 66 217 125 102 58 187 109 188 113 2 5
8 8 13 8 5 0 107 57 225 126 119 69 227 130 239 136 21 9 48 -3 222 -103 109
-62 200 -116 201 -121 2 -4 8 -8 13 -8 6 0 56 -26 112 -59 56 -32 125 -71 152
-86 28 -15 57 -34 66 -41 8 -8 18 -14 22 -14 4 0 44 -22 89 -49 46 -27 100
-58 121 -70 44 -25 63 -36 227 -131 69 -40 139 -80 155 -90 84 -48 212 -122
225 -130 26 -17 123 -72 180 -103 30 -17 73 -42 95 -56 22 -14 42 -26 45 -26
3 0 48 -25 100 -56 52 -31 142 -84 200 -117 l106 -61 2 -513 c1 -282 1 -550 2
-595 l0 -83 76 45 c42 25 80 45 85 45 5 0 9 4 9 9 0 5 6 11 13 13 7 2 56 28
110 58 l97 55 0 597 0 596 -152 88 c-84 49 -162 94 -173 100 -11 6 -46 26 -78
45 -33 19 -78 45 -100 58 -23 13 -204 118 -403 232 -199 115 -366 209 -372
209 -6 0 -12 4 -14 8 -3 7 -30 24 -128 80 -162 91 -877 506 -883 511 -4 4 13
18 39 32 25 13 53 29 62 34 177 106 276 131 412 105z"/>
</g>
</svg>
